<?xml version="1.0" encoding="UTF-8"?>
<svg xmlns="http://www.w3.org/2000/svg" width="248px"
  height="248px" viewBox="0 0 248 248" version="1.1">
  <g id="surface1">
    <path
      style=" stroke:none;fill-rule:nonzero;fill:rgb(100%,90.196079%,40.000001%);fill-opacity:1;"
      d="M 173.882812 183.96875 C 166.828125 219.253906 142.164062 235.882812 126.035156 243.140625 C 125.480469 243.394531 124.933594 243.632812 124.402344 243.859375 C 119.492188 245.960938 114.4375 241.175781 116.292969 236.171875 C 122.101562 220.472656 121.765625 215.425781 121.765625 215.425781 C 112.179688 215.863281 103.914062 215.441406 97.210938 214.714844 C 85.789062 213.46875 77.636719 203.007812 79.375 191.65625 C 82.742188 169.625 90.417969 155.566406 94.277344 149.628906 L 108.742188 142.640625 L 124.042969 135.246094 L 151.910156 149.921875 C 147.367188 164.6875 140.566406 175.46875 140.566406 175.46875 C 150.480469 173.722656 159.695312 173.683594 166.132812 174.03125 C 171.203125 174.300781 174.878906 178.996094 173.882812 183.96875 Z M 173.882812 183.96875 "/>
    <path
      style=" stroke:none;fill-rule:nonzero;fill:rgb(100%,63.137257%,67.450982%);fill-opacity:1;"
      d="M 141.234375 204.957031 C 140.167969 214.636719 136.777344 231.164062 126.035156 243.140625 C 125.480469 243.394531 124.933594 243.632812 124.402344 243.859375 C 119.492188 245.960938 114.4375 241.175781 116.292969 236.171875 C 122.101562 220.472656 121.765625 215.425781 121.765625 215.425781 C 112.179688 215.863281 103.914062 215.441406 97.210938 214.714844 C 85.789062 213.46875 77.636719 203.007812 79.375 191.65625 C 82.742188 169.625 90.417969 155.566406 94.277344 149.628906 L 108.742188 142.640625 L 113.324219 150.917969 C 113.324219 150.917969 103.105469 172.617188 100.601562 190.082031 C 100.050781 193.910156 102.894531 197.382812 106.757812 197.644531 C 112.601562 198.046875 122.046875 198.355469 134.164062 197.589844 C 138.296875 197.328125 141.6875 200.839844 141.234375 204.957031 Z M 141.234375 204.957031 "/>
    <path
      style=" stroke:none;fill-rule:nonzero;fill:rgb(100%,94.901961%,90.196079%);fill-opacity:1;"
      d="M 196.542969 142.402344 C 155.855469 152.5625 116.644531 153.683594 74.417969 147.25 C 74.410156 147.25 74.398438 147.246094 74.390625 147.246094 C 65.804688 145.9375 57.101562 144.320312 48.234375 142.402344 C -27.058594 126.113281 4.457031 46.699219 58.414062 64.1875 C 58.414062 64.1875 42.625 27.445312 76.191406 10.398438 C 92.71875 2.007812 112.4375 1.402344 127.628906 8.527344 C 137.386719 13.097656 145.277344 20.867188 149.25 31.804688 C 149.25 31.804688 166.851562 17.628906 187.390625 28.066406 C 207.234375 38.15625 202.167969 62.429688 202.167969 62.429688 C 251.359375 62.425781 267.164062 124.773438 196.542969 142.402344 Z M 196.542969 142.402344 "/>
    <path style=" stroke:none;fill-rule:nonzero;fill:rgb(100%,85.09804%,70.19608%);fill-opacity:1;"
      d="M 127.628906 8.527344 C 119.035156 8.957031 110.316406 11.191406 102.347656 15.238281 C 68.78125 32.289062 84.570312 69.03125 84.570312 69.03125 C 30.613281 51.542969 -0.902344 130.957031 74.390625 147.246094 C 65.804688 145.9375 57.101562 144.320312 48.234375 142.402344 C -27.058594 126.113281 4.457031 46.699219 58.414062 64.1875 C 58.414062 64.1875 42.625 27.445312 76.191406 10.394531 C 92.71875 2.007812 112.4375 1.402344 127.628906 8.527344 Z M 127.628906 8.527344 "/>
    <path
      style=" stroke:none;fill-rule:nonzero;fill:rgb(100%,63.137257%,67.450982%);fill-opacity:1;"
      d="M 99.726562 118.28125 C 99.726562 112.027344 93.359375 106.960938 85.507812 106.960938 C 77.65625 106.960938 71.289062 112.027344 71.289062 118.28125 C 71.289062 124.535156 77.65625 129.605469 85.507812 129.605469 C 93.359375 129.605469 99.726562 124.535156 99.726562 118.28125 Z M 99.726562 118.28125 "/>
    <path
      style=" stroke:none;fill-rule:nonzero;fill:rgb(100%,63.137257%,67.450982%);fill-opacity:1;"
      d="M 176.796875 118.28125 C 176.796875 112.027344 170.429688 106.960938 162.578125 106.960938 C 154.726562 106.960938 148.359375 112.027344 148.359375 118.28125 C 148.359375 124.535156 154.726562 129.605469 162.578125 129.605469 C 170.429688 129.605469 176.796875 124.535156 176.796875 118.28125 Z M 176.796875 118.28125 "/>
    <path
      style=" stroke:none;fill-rule:nonzero;fill:rgb(28.627452%,33.333334%,37.64706%);fill-opacity:1;"
      d="M 133.890625 110.84375 C 133.890625 104.210938 129.480469 98.835938 124.042969 98.835938 C 118.605469 98.835938 114.195312 104.210938 114.195312 110.84375 C 114.195312 117.476562 118.605469 122.851562 124.042969 122.851562 C 129.480469 122.851562 133.890625 117.476562 133.890625 110.84375 Z M 133.890625 110.84375 "/>
    <path
      style="fill:none;stroke-width:15;stroke-linecap:round;stroke-linejoin:round;stroke:rgb(0%,0%,0%);stroke-opacity:1;stroke-miterlimit:10;"
      d="M 405.766129 293.782258 C 551.572581 257.419355 518.943548 128.830645 417.379032 128.830645 C 417.379032 128.830645 427.83871 78.766129 386.870968 57.959677 C 344.467742 36.427419 308.129032 65.66129 308.129032 65.66129 C 287.153226 7.975806 213.330645 -6.919355 157.298387 21.508065 C 152.096774 24.153226 147.467742 27.016129 143.362903 30.064516 "
      transform="matrix(0.484375,0,0,0.484375,0,0)"/>
    <path
      style="fill:none;stroke-width:15;stroke-linecap:round;stroke-linejoin:round;stroke:rgb(0%,0%,0%);stroke-opacity:1;stroke-miterlimit:10;"
      d="M 122.322581 53.677419 C 102.258065 89.830645 120.596774 132.459677 120.596774 132.459677 C 9.193548 96.395161 -55.862903 260.185484 99.572581 293.782258 C 195.435484 314.508065 282.096774 318.298387 370.741935 301.475806 "
      transform="matrix(0.484375,0,0,0.484375,0,0)"/>
    <path
      style="fill:none;stroke-width:15;stroke-linecap:round;stroke-linejoin:round;stroke:rgb(0%,0%,0%);stroke-opacity:1;stroke-miterlimit:10;"
      d="M 193.645161 213.895161 L 193.645161 224.25 "
      transform="matrix(0.484375,0,0,0.484375,0,0)"/>
    <path
      style="fill:none;stroke-width:15;stroke-linecap:round;stroke-linejoin:round;stroke:rgb(0%,0%,0%);stroke-opacity:1;stroke-miterlimit:10;"
      d="M 318.540323 213.895161 L 318.540323 224.25 "
      transform="matrix(0.484375,0,0,0.484375,0,0)"/>
    <path
      style="fill:none;stroke-width:15;stroke-linecap:round;stroke-linejoin:round;stroke:rgb(0%,0%,0%);stroke-opacity:1;stroke-miterlimit:10;"
      d="M 181.403226 202.370968 L 205.467742 208.814516 "
      transform="matrix(0.484375,0,0,0.484375,0,0)"/>
    <path
      style="fill:none;stroke-width:15;stroke-linecap:round;stroke-linejoin:round;stroke:rgb(0%,0%,0%);stroke-opacity:1;stroke-miterlimit:10;"
      d="M 330.782258 202.370968 L 306.717742 208.814516 "
      transform="matrix(0.484375,0,0,0.484375,0,0)"/>
    <path
      style="fill:none;stroke-width:15;stroke-linecap:round;stroke-linejoin:round;stroke:rgb(0%,0%,0%);stroke-opacity:1;stroke-miterlimit:10;"
      d="M 276.419355 228.814516 C 276.419355 215.137097 267.314516 204.048387 256.08871 204.048387 C 244.862903 204.048387 235.758065 215.137097 235.758065 228.814516 C 235.758065 242.491935 244.862903 253.580645 256.08871 253.580645 C 267.314516 253.580645 276.419355 242.491935 276.419355 228.814516 Z M 276.419355 228.814516 "
      transform="matrix(0.484375,0,0,0.484375,0,0)"/>
    <path
      style="fill:none;stroke-width:15;stroke-linecap:round;stroke-linejoin:round;stroke:rgb(0%,0%,0%);stroke-opacity:1;stroke-miterlimit:10;"
      d="M 351.314516 125.790323 C 351.314516 125.790323 338.443548 114.104839 315.145161 117.322581 C 293.25 120.346774 285.766129 135.564516 285.766129 135.564516 "
      transform="matrix(0.484375,0,0,0.484375,0,0)"/>
    <path
      style="fill:none;stroke-width:15;stroke-linecap:round;stroke-linejoin:round;stroke:rgb(0%,0%,0%);stroke-opacity:1;stroke-miterlimit:10;"
      d="M 193.637097 441.895161 C 195.91129 442.548387 198.266129 443.016129 200.693548 443.274194 C 214.524194 444.782258 231.604839 445.653226 251.387097 444.75 C 251.387097 444.75 252.080645 455.169355 240.08871 487.580645 C 236.266129 497.91129 246.693548 507.790323 256.830645 503.451613 C 289.943548 489.298387 343.919355 455.16129 358.983871 379.806452 C 361.040323 369.540323 353.443548 359.846774 342.975806 359.290323 C 329.693548 358.572581 310.669355 358.653226 290.193548 362.258065 C 290.193548 362.258065 304.241935 340 313.620968 309.516129 "
      transform="matrix(0.484375,0,0,0.484375,0,0)"/>
    <path
      style="fill:none;stroke-width:15;stroke-linecap:round;stroke-linejoin:round;stroke:rgb(0%,0%,0%);stroke-opacity:1;stroke-miterlimit:10;"
      d="M 194.637097 308.91129 C 186.669355 321.169355 170.822581 350.193548 163.870968 395.677419 C 162.556452 404.266129 163.983871 412.604839 167.475806 419.854839 "
      transform="matrix(0.484375,0,0,0.484375,0,0)"/>
    <path
      style="fill:none;stroke-width:15;stroke-linecap:round;stroke-linejoin:round;stroke:rgb(0%,0%,0%);stroke-opacity:1;stroke-miterlimit:10;"
      d="M 122.290323 334.096774 C 122.290323 334.096774 109.524194 342.314516 102.322581 357.177419 C 102.322581 357.177419 123.322581 355.919355 132.620968 359.782258 C 132.620968 359.782258 114.177419 372.048387 108.693548 391.225806 "
      transform="matrix(0.484375,0,0,0.484375,0,0)"/>
    <path
      style="fill:none;stroke-width:15;stroke-linecap:round;stroke-linejoin:round;stroke:rgb(0%,0%,0%);stroke-opacity:1;stroke-miterlimit:10;"
      d="M 388.733871 401.524194 C 388.733871 401.524194 376.725806 417.475806 374.629032 439.08871 C 374.629032 439.08871 399.959677 427.967742 413.185484 428.508065 C 413.185484 428.508065 396.032258 452.032258 398.016129 478.185484 "
      transform="matrix(0.484375,0,0,0.484375,0,0)"/>
    <path
      style="fill:none;stroke-width:15;stroke-linecap:butt;stroke-linejoin:round;stroke:rgb(0%,0%,0%);stroke-opacity:1;stroke-miterlimit:10;"
      d="M 233.959677 311.572581 C 233.959677 311.572581 212.854839 356.370968 207.693548 392.435484 C 206.564516 400.330645 212.435484 407.5 220.395161 408.040323 C 232.467742 408.870968 251.975806 409.508065 276.983871 407.935484 C 285.524194 407.395161 292.516129 414.637097 291.580645 423.145161 C 289.379032 443.120968 282.379032 477.241935 260.193548 501.975806 "
      transform="matrix(0.484375,0,0,0.484375,0,0)"/>
  </g>
</svg>
