<?xml version="1.0" encoding="UTF-8"?>
<svg xmlns="http://www.w3.org/2000/svg" width="40px"
  height="40px" viewBox="0 0 40 40" version="1.1">
  <g id="surface1">
    <path
      style=" stroke:none;fill-rule:nonzero;fill:rgb(100%,90.196079%,40.000001%);fill-opacity:1;"
      d="M 28.046875 29.671875 C 26.90625 35.363281 22.929688 38.046875 20.328125 39.214844 C 20.238281 39.257812 20.152344 39.296875 20.066406 39.332031 C 19.273438 39.671875 18.457031 38.898438 18.757812 38.09375 C 19.695312 35.558594 19.640625 34.746094 19.640625 34.746094 C 18.09375 34.816406 16.761719 34.75 15.679688 34.632812 C 13.835938 34.429688 12.523438 32.742188 12.800781 30.914062 C 13.34375 27.359375 14.582031 25.089844 15.207031 24.132812 L 17.539062 23.007812 L 20.007812 21.8125 L 24.5 24.179688 C 23.769531 26.5625 22.671875 28.300781 22.671875 28.300781 C 24.269531 28.019531 25.757812 28.011719 26.796875 28.070312 C 27.613281 28.113281 28.207031 28.871094 28.046875 29.671875 Z M 28.046875 29.671875 "/>
    <path
      style=" stroke:none;fill-rule:nonzero;fill:rgb(100%,63.137257%,67.450982%);fill-opacity:1;"
      d="M 22.78125 33.058594 C 22.609375 34.617188 22.0625 37.285156 20.328125 39.214844 C 20.238281 39.257812 20.152344 39.296875 20.066406 39.332031 C 19.273438 39.671875 18.457031 38.898438 18.757812 38.09375 C 19.695312 35.558594 19.640625 34.746094 19.640625 34.746094 C 18.09375 34.816406 16.761719 34.75 15.679688 34.632812 C 13.835938 34.429688 12.523438 32.742188 12.800781 30.914062 C 13.34375 27.359375 14.582031 25.089844 15.207031 24.132812 L 17.539062 23.007812 L 18.277344 24.339844 C 18.277344 24.339844 16.628906 27.839844 16.226562 30.660156 C 16.136719 31.277344 16.597656 31.835938 17.21875 31.878906 C 18.160156 31.941406 19.683594 31.992188 21.640625 31.871094 C 22.304688 31.828125 22.851562 32.394531 22.78125 33.058594 Z M 22.78125 33.058594 "/>
    <path
      style=" stroke:none;fill-rule:nonzero;fill:rgb(100%,94.901961%,90.196079%);fill-opacity:1;"
      d="M 31.699219 22.96875 C 25.136719 24.605469 18.8125 24.789062 12.003906 23.75 C 12 23.75 12 23.75 12 23.75 C 10.613281 23.539062 9.210938 23.277344 7.78125 22.96875 C -4.363281 20.339844 0.71875 7.53125 9.421875 10.351562 C 9.421875 10.351562 6.875 4.425781 12.289062 1.675781 C 14.953125 0.324219 18.136719 0.226562 20.585938 1.375 C 22.160156 2.113281 23.433594 3.367188 24.074219 5.128906 C 24.074219 5.128906 26.910156 2.84375 30.222656 4.527344 C 33.425781 6.152344 32.609375 10.070312 32.609375 10.070312 C 40.542969 10.070312 43.089844 20.125 31.699219 22.96875 Z M 31.699219 22.96875 "/>
    <path style=" stroke:none;fill-rule:nonzero;fill:rgb(100%,85.09804%,70.19608%);fill-opacity:1;"
      d="M 20.585938 1.375 C 19.199219 1.445312 17.792969 1.804688 16.507812 2.457031 C 11.09375 5.207031 13.640625 11.132812 13.640625 11.132812 C 4.9375 8.3125 -0.144531 21.121094 12 23.75 C 10.613281 23.539062 9.210938 23.277344 7.78125 22.96875 C -4.363281 20.339844 0.71875 7.53125 9.421875 10.351562 C 9.421875 10.351562 6.875 4.425781 12.289062 1.675781 C 14.953125 0.324219 18.136719 0.226562 20.585938 1.375 Z M 20.585938 1.375 "/>
    <path
      style=" stroke:none;fill-rule:nonzero;fill:rgb(100%,63.137257%,67.450982%);fill-opacity:1;"
      d="M 16.085938 19.078125 C 16.085938 18.070312 15.058594 17.25 13.792969 17.25 C 12.523438 17.25 11.5 18.070312 11.5 19.078125 C 11.5 20.085938 12.523438 20.902344 13.792969 20.902344 C 15.058594 20.902344 16.085938 20.085938 16.085938 19.078125 Z M 16.085938 19.078125 "/>
    <path
      style=" stroke:none;fill-rule:nonzero;fill:rgb(100%,63.137257%,67.450982%);fill-opacity:1;"
      d="M 28.515625 19.078125 C 28.515625 18.070312 27.488281 17.25 26.222656 17.25 C 24.957031 17.25 23.929688 18.070312 23.929688 19.078125 C 23.929688 20.085938 24.957031 20.902344 26.222656 20.902344 C 27.488281 20.902344 28.515625 20.085938 28.515625 19.078125 Z M 28.515625 19.078125 "/>
    <path
      style=" stroke:none;fill-rule:nonzero;fill:rgb(28.627452%,33.333334%,37.64706%);fill-opacity:1;"
      d="M 21.59375 17.878906 C 21.59375 16.808594 20.882812 15.941406 20.007812 15.941406 C 19.128906 15.941406 18.417969 16.808594 18.417969 17.878906 C 18.417969 18.949219 19.128906 19.816406 20.007812 19.816406 C 20.882812 19.816406 21.59375 18.949219 21.59375 17.878906 Z M 21.59375 17.878906 "/>
    <path
      style="fill:none;stroke-width:15;stroke-linecap:round;stroke-linejoin:round;stroke:rgb(0%,0%,0%);stroke-opacity:1;stroke-miterlimit:10;"
      d="M 405.75 293.8 C 551.55 257.4 518.95 128.85 417.4 128.85 C 417.4 128.85 427.85 78.75 386.85 57.95 C 344.45 36.4 308.15 65.65 308.15 65.65 C 287.15 8 213.35 -6.9 157.3 21.5 C 152.1 24.15 147.45 27 143.35 30.05 "
      transform="matrix(0.078125,0,0,0.078125,0,0)"/>
    <path
      style="fill:none;stroke-width:15;stroke-linecap:round;stroke-linejoin:round;stroke:rgb(0%,0%,0%);stroke-opacity:1;stroke-miterlimit:10;"
      d="M 122.35 53.7 C 102.25 89.85 120.6 132.45 120.6 132.45 C 9.2 96.4 -55.85 260.2 99.55 293.8 C 195.45 314.5 282.1 318.3 370.75 301.5 "
      transform="matrix(0.078125,0,0,0.078125,0,0)"/>
    <path
      style="fill:none;stroke-width:15;stroke-linecap:round;stroke-linejoin:round;stroke:rgb(0%,0%,0%);stroke-opacity:1;stroke-miterlimit:10;"
      d="M 193.65 213.9 L 193.65 224.25 " transform="matrix(0.078125,0,0,0.078125,0,0)"/>
    <path
      style="fill:none;stroke-width:15;stroke-linecap:round;stroke-linejoin:round;stroke:rgb(0%,0%,0%);stroke-opacity:1;stroke-miterlimit:10;"
      d="M 318.55 213.9 L 318.55 224.25 " transform="matrix(0.078125,0,0,0.078125,0,0)"/>
    <path
      style="fill:none;stroke-width:15;stroke-linecap:round;stroke-linejoin:round;stroke:rgb(0%,0%,0%);stroke-opacity:1;stroke-miterlimit:10;"
      d="M 181.4 202.4 L 205.45 208.8 " transform="matrix(0.078125,0,0,0.078125,0,0)"/>
    <path
      style="fill:none;stroke-width:15;stroke-linecap:round;stroke-linejoin:round;stroke:rgb(0%,0%,0%);stroke-opacity:1;stroke-miterlimit:10;"
      d="M 330.8 202.4 L 306.7 208.8 " transform="matrix(0.078125,0,0,0.078125,0,0)"/>
    <path
      style="fill:none;stroke-width:15;stroke-linecap:round;stroke-linejoin:round;stroke:rgb(0%,0%,0%);stroke-opacity:1;stroke-miterlimit:10;"
      d="M 276.4 228.8 C 276.4 215.15 267.3 204.05 256.1 204.05 C 244.85 204.05 235.75 215.15 235.75 228.8 C 235.75 242.5 244.85 253.6 256.1 253.6 C 267.3 253.6 276.4 242.5 276.4 228.8 Z M 276.4 228.8 "
      transform="matrix(0.078125,0,0,0.078125,0,0)"/>
    <path
      style="fill:none;stroke-width:15;stroke-linecap:round;stroke-linejoin:round;stroke:rgb(0%,0%,0%);stroke-opacity:1;stroke-miterlimit:10;"
      d="M 351.3 125.8 C 351.3 125.8 338.45 114.1 315.15 117.3 C 293.25 120.35 285.75 135.55 285.75 135.55 "
      transform="matrix(0.078125,0,0,0.078125,0,0)"/>
    <path
      style="fill:none;stroke-width:15;stroke-linecap:round;stroke-linejoin:round;stroke:rgb(0%,0%,0%);stroke-opacity:1;stroke-miterlimit:10;"
      d="M 193.65 441.9 C 195.9 442.55 198.25 443 200.7 443.3 C 214.55 444.8 231.6 445.65 251.4 444.75 C 251.4 444.75 252.1 455.15 240.1 487.6 C 236.25 497.9 246.7 507.8 256.85 503.45 C 289.95 489.3 343.9 455.15 359 379.8 C 361.05 369.55 353.45 359.85 343 359.3 C 329.7 358.55 310.65 358.65 290.2 362.25 C 290.2 362.25 304.25 340 313.6 309.5 "
      transform="matrix(0.078125,0,0,0.078125,0,0)"/>
    <path
      style="fill:none;stroke-width:15;stroke-linecap:round;stroke-linejoin:round;stroke:rgb(0%,0%,0%);stroke-opacity:1;stroke-miterlimit:10;"
      d="M 194.65 308.9 C 186.65 321.15 170.8 350.2 163.85 395.7 C 162.55 404.25 164 412.6 167.5 419.85 "
      transform="matrix(0.078125,0,0,0.078125,0,0)"/>
    <path
      style="fill:none;stroke-width:15;stroke-linecap:round;stroke-linejoin:round;stroke:rgb(0%,0%,0%);stroke-opacity:1;stroke-miterlimit:10;"
      d="M 122.3 334.1 C 122.3 334.1 109.5 342.3 102.35 357.2 C 102.35 357.2 123.35 355.9 132.6 359.8 C 132.6 359.8 114.2 372.05 108.7 391.2 "
      transform="matrix(0.078125,0,0,0.078125,0,0)"/>
    <path
      style="fill:none;stroke-width:15;stroke-linecap:round;stroke-linejoin:round;stroke:rgb(0%,0%,0%);stroke-opacity:1;stroke-miterlimit:10;"
      d="M 388.75 401.5 C 388.75 401.5 376.75 417.45 374.65 439.1 C 374.65 439.1 399.95 427.95 413.2 428.5 C 413.2 428.5 396.05 452.05 398 478.2 "
      transform="matrix(0.078125,0,0,0.078125,0,0)"/>
    <path
      style="fill:none;stroke-width:15;stroke-linecap:butt;stroke-linejoin:round;stroke:rgb(0%,0%,0%);stroke-opacity:1;stroke-miterlimit:10;"
      d="M 233.95 311.55 C 233.95 311.55 212.85 356.35 207.7 392.45 C 206.55 400.35 212.45 407.5 220.4 408.05 C 232.45 408.85 251.95 409.5 277 407.95 C 285.5 407.4 292.5 414.65 291.6 423.15 C 289.4 443.1 282.4 477.25 260.2 501.95 "
      transform="matrix(0.078125,0,0,0.078125,0,0)"/>
  </g>
</svg>
