<?xml version="1.0" encoding="UTF-8"?>
<svg xmlns="http://www.w3.org/2000/svg" width="16px"
  height="16px" viewBox="0 0 16 16" version="1.1">
  <g id="surface1">
    <path
      style=" stroke:none;fill-rule:nonzero;fill:rgb(100%,90.196079%,40.000001%);fill-opacity:1;"
      d="M 11.21875 11.867188 C 10.761719 14.144531 9.171875 15.21875 8.132812 15.6875 C 8.09375 15.703125 8.0625 15.71875 8.027344 15.734375 C 7.710938 15.867188 7.382812 15.558594 7.503906 15.238281 C 7.878906 14.222656 7.855469 13.898438 7.855469 13.898438 C 7.238281 13.925781 6.703125 13.898438 6.273438 13.851562 C 5.535156 13.773438 5.007812 13.097656 5.121094 12.367188 C 5.335938 10.945312 5.832031 10.035156 6.082031 9.652344 L 7.015625 9.203125 L 8.003906 8.726562 L 9.800781 9.671875 C 9.507812 10.625 9.070312 11.320312 9.070312 11.320312 C 9.707031 11.207031 10.304688 11.203125 10.71875 11.226562 C 11.046875 11.246094 11.28125 11.546875 11.21875 11.867188 Z M 11.21875 11.867188 "/>
    <path
      style=" stroke:none;fill-rule:nonzero;fill:rgb(100%,63.137257%,67.450982%);fill-opacity:1;"
      d="M 9.113281 13.222656 C 9.042969 13.847656 8.824219 14.914062 8.132812 15.6875 C 8.09375 15.703125 8.0625 15.71875 8.027344 15.734375 C 7.710938 15.867188 7.382812 15.558594 7.503906 15.238281 C 7.878906 14.222656 7.855469 13.898438 7.855469 13.898438 C 7.238281 13.925781 6.703125 13.898438 6.273438 13.851562 C 5.535156 13.773438 5.007812 13.097656 5.121094 12.367188 C 5.335938 10.945312 5.832031 10.035156 6.082031 9.652344 L 7.015625 9.203125 L 7.3125 9.734375 C 7.3125 9.734375 6.652344 11.136719 6.492188 12.265625 C 6.453125 12.511719 6.640625 12.734375 6.886719 12.75 C 7.265625 12.777344 7.875 12.796875 8.65625 12.75 C 8.921875 12.730469 9.140625 12.957031 9.113281 13.222656 Z M 9.113281 13.222656 "/>
    <path
      style=" stroke:none;fill-rule:nonzero;fill:rgb(100%,94.901961%,90.196079%);fill-opacity:1;"
      d="M 12.679688 9.1875 C 10.054688 9.84375 7.523438 9.914062 4.800781 9.5 C 4.246094 9.414062 3.683594 9.3125 3.113281 9.1875 C -1.746094 8.136719 0.289062 3.011719 3.769531 4.140625 C 3.769531 4.140625 2.75 1.769531 4.914062 0.671875 C 5.980469 0.128906 7.253906 0.0898438 8.234375 0.550781 C 8.863281 0.84375 9.375 1.347656 9.628906 2.050781 C 9.628906 2.050781 10.765625 1.136719 12.089844 1.8125 C 13.371094 2.460938 13.042969 4.027344 13.042969 4.027344 C 16.21875 4.027344 17.234375 8.050781 12.679688 9.1875 Z M 12.679688 9.1875 "/>
    <path style=" stroke:none;fill-rule:nonzero;fill:rgb(100%,85.09804%,70.19608%);fill-opacity:1;"
      d="M 8.234375 0.550781 C 7.679688 0.578125 7.117188 0.722656 6.601562 0.984375 C 4.4375 2.082031 5.457031 4.453125 5.457031 4.453125 C 1.976562 3.324219 -0.0585938 8.449219 4.800781 9.5 C 4.246094 9.414062 3.683594 9.3125 3.113281 9.1875 C -1.746094 8.136719 0.289062 3.011719 3.769531 4.140625 C 3.769531 4.140625 2.75 1.769531 4.914062 0.671875 C 5.980469 0.128906 7.253906 0.0898438 8.234375 0.550781 Z M 8.234375 0.550781 "/>
    <path
      style=" stroke:none;fill-rule:nonzero;fill:rgb(100%,63.137257%,67.450982%);fill-opacity:1;"
      d="M 6.433594 7.632812 C 6.433594 7.226562 6.023438 6.898438 5.515625 6.898438 C 5.007812 6.898438 4.601562 7.226562 4.601562 7.632812 C 4.601562 8.035156 5.007812 8.359375 5.515625 8.359375 C 6.023438 8.359375 6.433594 8.035156 6.433594 7.632812 Z M 6.433594 7.632812 "/>
    <path
      style=" stroke:none;fill-rule:nonzero;fill:rgb(100%,63.137257%,67.450982%);fill-opacity:1;"
      d="M 11.40625 7.632812 C 11.40625 7.226562 10.996094 6.898438 10.488281 6.898438 C 9.984375 6.898438 9.570312 7.226562 9.570312 7.632812 C 9.570312 8.035156 9.984375 8.359375 10.488281 8.359375 C 10.996094 8.359375 11.40625 8.035156 11.40625 7.632812 Z M 11.40625 7.632812 "/>
    <path
      style=" stroke:none;fill-rule:nonzero;fill:rgb(28.627452%,33.333334%,37.64706%);fill-opacity:1;"
      d="M 8.636719 7.152344 C 8.636719 6.722656 8.351562 6.375 8.003906 6.375 C 7.652344 6.375 7.367188 6.722656 7.367188 7.152344 C 7.367188 7.578125 7.652344 7.925781 8.003906 7.925781 C 8.351562 7.925781 8.636719 7.578125 8.636719 7.152344 Z M 8.636719 7.152344 "/>
    <path
      style="fill:none;stroke-width:15;stroke-linecap:round;stroke-linejoin:round;stroke:rgb(0%,0%,0%);stroke-opacity:1;stroke-miterlimit:10;"
      d="M 405.75 293.75 C 551.5 257.375 519 128.875 417.375 128.875 C 417.375 128.875 427.875 78.75 386.875 58 C 344.5 36.375 308.125 65.625 308.125 65.625 C 287.125 8 213.375 -6.875 157.25 21.5 C 152.125 24.125 147.5 27 143.375 30 "
      transform="matrix(0.03125,0,0,0.03125,0,0)"/>
    <path
      style="fill:none;stroke-width:15;stroke-linecap:round;stroke-linejoin:round;stroke:rgb(0%,0%,0%);stroke-opacity:1;stroke-miterlimit:10;"
      d="M 122.375 53.75 C 102.25 89.875 120.625 132.5 120.625 132.5 C 9.25 96.375 -55.875 260.25 99.5 293.75 C 195.5 314.5 282.125 318.25 370.75 301.5 "
      transform="matrix(0.03125,0,0,0.03125,0,0)"/>
    <path
      style="fill:none;stroke-width:15;stroke-linecap:round;stroke-linejoin:round;stroke:rgb(0%,0%,0%);stroke-opacity:1;stroke-miterlimit:10;"
      d="M 193.625 213.875 L 193.625 224.25 " transform="matrix(0.03125,0,0,0.03125,0,0)"/>
    <path
      style="fill:none;stroke-width:15;stroke-linecap:round;stroke-linejoin:round;stroke:rgb(0%,0%,0%);stroke-opacity:1;stroke-miterlimit:10;"
      d="M 318.5 213.875 L 318.5 224.25 " transform="matrix(0.03125,0,0,0.03125,0,0)"/>
    <path
      style="fill:none;stroke-width:15;stroke-linecap:round;stroke-linejoin:round;stroke:rgb(0%,0%,0%);stroke-opacity:1;stroke-miterlimit:10;"
      d="M 181.375 202.375 L 205.5 208.75 " transform="matrix(0.03125,0,0,0.03125,0,0)"/>
    <path
      style="fill:none;stroke-width:15;stroke-linecap:round;stroke-linejoin:round;stroke:rgb(0%,0%,0%);stroke-opacity:1;stroke-miterlimit:10;"
      d="M 330.75 202.375 L 306.75 208.75 " transform="matrix(0.03125,0,0,0.03125,0,0)"/>
    <path
      style="fill:none;stroke-width:15;stroke-linecap:round;stroke-linejoin:round;stroke:rgb(0%,0%,0%);stroke-opacity:1;stroke-miterlimit:10;"
      d="M 276.375 228.75 C 276.375 215.125 267.25 204 256.125 204 C 244.875 204 235.75 215.125 235.75 228.75 C 235.75 242.5 244.875 253.625 256.125 253.625 C 267.25 253.625 276.375 242.5 276.375 228.75 Z M 276.375 228.75 "
      transform="matrix(0.03125,0,0,0.03125,0,0)"/>
    <path
      style="fill:none;stroke-width:15;stroke-linecap:round;stroke-linejoin:round;stroke:rgb(0%,0%,0%);stroke-opacity:1;stroke-miterlimit:10;"
      d="M 351.25 125.75 C 351.25 125.75 338.5 114.125 315.125 117.25 C 293.25 120.375 285.75 135.5 285.75 135.5 "
      transform="matrix(0.03125,0,0,0.03125,0,0)"/>
    <path
      style="fill:none;stroke-width:15;stroke-linecap:round;stroke-linejoin:round;stroke:rgb(0%,0%,0%);stroke-opacity:1;stroke-miterlimit:10;"
      d="M 193.625 441.875 C 195.875 442.5 198.25 443 200.75 443.25 C 214.5 444.75 231.625 445.625 251.375 444.75 C 251.375 444.75 252.125 455.125 240.125 487.625 C 236.25 497.875 246.75 507.75 256.875 503.5 C 290 489.25 343.875 455.125 359 379.75 C 361 369.5 353.5 359.875 343 359.25 C 329.75 358.5 310.625 358.625 290.25 362.25 C 290.25 362.25 304.25 340 313.625 309.5 "
      transform="matrix(0.03125,0,0,0.03125,0,0)"/>
    <path
      style="fill:none;stroke-width:15;stroke-linecap:round;stroke-linejoin:round;stroke:rgb(0%,0%,0%);stroke-opacity:1;stroke-miterlimit:10;"
      d="M 194.625 308.875 C 186.625 321.125 170.75 350.25 163.875 395.75 C 162.5 404.25 164 412.625 167.5 419.875 "
      transform="matrix(0.03125,0,0,0.03125,0,0)"/>
    <path
      style="fill:none;stroke-width:15;stroke-linecap:round;stroke-linejoin:round;stroke:rgb(0%,0%,0%);stroke-opacity:1;stroke-miterlimit:10;"
      d="M 122.25 334.125 C 122.25 334.125 109.5 342.25 102.375 357.25 C 102.375 357.25 123.375 355.875 132.625 359.75 C 132.625 359.75 114.25 372 108.75 391.25 "
      transform="matrix(0.03125,0,0,0.03125,0,0)"/>
    <path
      style="fill:none;stroke-width:15;stroke-linecap:round;stroke-linejoin:round;stroke:rgb(0%,0%,0%);stroke-opacity:1;stroke-miterlimit:10;"
      d="M 388.75 401.5 C 388.75 401.5 376.75 417.5 374.625 439.125 C 374.625 439.125 400 428 413.25 428.5 C 413.25 428.5 396 452 398 478.25 "
      transform="matrix(0.03125,0,0,0.03125,0,0)"/>
    <path
      style="fill:none;stroke-width:15;stroke-linecap:butt;stroke-linejoin:round;stroke:rgb(0%,0%,0%);stroke-opacity:1;stroke-miterlimit:10;"
      d="M 234 311.5 C 234 311.5 212.875 356.375 207.75 392.5 C 206.5 400.375 212.5 407.5 220.375 408 C 232.5 408.875 252 409.5 277 408 C 285.5 407.375 292.5 414.625 291.625 423.125 C 289.375 443.125 282.375 477.25 260.25 502 "
      transform="matrix(0.03125,0,0,0.03125,0,0)"/>
  </g>
</svg>
