<?xml version="1.0" encoding="UTF-8"?>
<svg xmlns="http://www.w3.org/2000/svg" width="25px"
  height="25px" viewBox="0 0 25 25" version="1.1">
  <g id="surface1">
    <path
      style=" stroke:none;fill-rule:nonzero;fill:rgb(88.235295%,88.235295%,97.647059%);fill-opacity:1;"
      d="M 7.5 5.414062 L 17.5 5.414062 C 21.410156 5.414062 24.585938 8.585938 24.585938 12.5 C 24.585938 16.414062 21.410156 19.585938 17.5 19.585938 L 7.5 19.585938 C 3.589844 19.585938 0.414062 16.414062 0.414062 12.5 C 0.414062 8.585938 3.589844 5.414062 7.5 5.414062 Z M 7.5 5.414062 "/>
    <path
      style=" stroke:none;fill-rule:nonzero;fill:rgb(87.058824%,0.784314%,29.411766%);fill-opacity:1;"
      d="M 22.917969 12.5 C 22.917969 9.507812 20.488281 7.085938 17.5 7.085938 C 14.507812 7.085938 12.085938 9.507812 12.085938 12.5 C 12.085938 15.492188 14.507812 17.914062 17.5 17.914062 C 20.488281 17.914062 22.917969 15.492188 22.917969 12.5 Z M 22.917969 12.5 "/>
    <path style=" stroke:none;fill-rule:nonzero;fill:rgb(100%,100%,100%);fill-opacity:1;"
      d="M 18.675781 12.5 L 20.171875 11.003906 C 20.496094 10.679688 20.496094 10.148438 20.171875 9.828125 C 19.847656 9.503906 19.316406 9.503906 18.992188 9.828125 L 17.5 11.320312 L 16.003906 9.828125 C 15.679688 9.503906 15.15625 9.503906 14.824219 9.828125 C 14.5 10.148438 14.5 10.679688 14.824219 11.003906 L 16.320312 12.5 L 14.824219 13.996094 C 14.5 14.320312 14.5 14.851562 14.824219 15.171875 C 14.992188 15.339844 15.203125 15.417969 15.417969 15.417969 C 15.632812 15.417969 15.84375 15.339844 16.003906 15.171875 L 17.5 13.679688 L 18.992188 15.171875 C 19.160156 15.339844 19.371094 15.417969 19.585938 15.417969 C 19.792969 15.417969 20.007812 15.339844 20.171875 15.171875 C 20.496094 14.851562 20.496094 14.320312 20.171875 13.996094 Z M 18.675781 12.5 "/>
    <path
      style=" stroke:none;fill-rule:nonzero;fill:rgb(8.627451%,8.627451%,8.627451%);fill-opacity:1;"
      d="M 23.332031 12.5 C 23.332031 9.285156 20.714844 6.664062 17.5 6.664062 C 14.28125 6.664062 11.664062 9.285156 11.664062 12.5 C 11.664062 15.714844 14.28125 18.335938 17.5 18.335938 C 20.714844 18.335938 23.332031 15.714844 23.332031 12.5 Z M 12.5 12.5 C 12.5 9.742188 14.738281 7.5 17.5 7.5 C 20.257812 7.5 22.496094 9.742188 22.496094 12.5 C 22.496094 15.257812 20.257812 17.5 17.5 17.5 C 14.738281 17.5 12.5 15.257812 12.5 12.5 Z M 12.5 12.5 "/>
    <path
      style=" stroke:none;fill-rule:nonzero;fill:rgb(8.627451%,8.627451%,8.627451%);fill-opacity:1;"
      d="M 18.703125 15.464844 C 18.933594 15.703125 19.25 15.832031 19.585938 15.832031 C 19.914062 15.832031 20.234375 15.703125 20.464844 15.464844 C 20.953125 14.976562 20.953125 14.183594 20.464844 13.703125 L 19.269531 12.5 L 20.464844 11.296875 C 20.953125 10.816406 20.953125 10.023438 20.464844 9.535156 C 19.976562 9.046875 19.1875 9.046875 18.703125 9.535156 L 17.5 10.730469 L 16.300781 9.535156 C 15.8125 9.046875 15.019531 9.046875 14.53125 9.535156 C 14.042969 10.023438 14.042969 10.816406 14.53125 11.296875 L 15.734375 12.5 L 14.53125 13.703125 C 14.042969 14.183594 14.042969 14.976562 14.53125 15.464844 C 15.003906 15.9375 15.828125 15.9375 16.300781 15.464844 L 17.5 14.269531 Z M 15.710938 14.878906 C 15.550781 15.03125 15.277344 15.03125 15.125 14.878906 C 14.960938 14.714844 14.960938 14.453125 15.125 14.289062 L 16.613281 12.792969 C 16.777344 12.632812 16.777344 12.367188 16.613281 12.207031 L 15.125 10.710938 C 14.960938 10.546875 14.960938 10.285156 15.125 10.121094 C 15.28125 9.960938 15.546875 9.960938 15.710938 10.121094 L 17.207031 11.613281 C 17.371094 11.78125 17.632812 11.78125 17.792969 11.613281 L 19.289062 10.121094 C 19.453125 9.960938 19.714844 9.960938 19.878906 10.121094 C 20.039062 10.285156 20.039062 10.546875 19.878906 10.710938 L 18.382812 12.207031 C 18.21875 12.367188 18.21875 12.632812 18.382812 12.792969 L 19.878906 14.289062 C 20.039062 14.453125 20.039062 14.714844 19.878906 14.878906 C 19.71875 15.03125 19.445312 15.03125 19.289062 14.878906 L 17.792969 13.386719 C 17.710938 13.300781 17.609375 13.261719 17.5 13.261719 C 17.394531 13.261719 17.285156 13.300781 17.207031 13.386719 Z M 15.710938 14.878906 "/>
    <path
      style=" stroke:none;fill-rule:nonzero;fill:rgb(8.627451%,8.627451%,8.627451%);fill-opacity:1;"
      d="M 17.5 5 L 9.167969 5 C 8.9375 5 8.753906 5.1875 8.753906 5.414062 C 8.753906 5.644531 8.9375 5.835938 9.167969 5.835938 L 17.5 5.835938 C 21.171875 5.835938 24.164062 8.824219 24.164062 12.5 C 24.164062 16.175781 21.171875 19.164062 17.5 19.164062 L 7.5 19.164062 C 3.828125 19.164062 0.835938 16.175781 0.835938 12.5 C 0.835938 8.824219 3.828125 5.835938 7.5 5.835938 C 7.734375 5.835938 7.917969 5.644531 7.917969 5.414062 C 7.917969 5.1875 7.734375 5 7.5 5 C 3.363281 5 0 8.363281 0 12.5 C 0 16.636719 3.363281 20 7.5 20 L 17.5 20 C 21.636719 20 25 16.636719 25 12.5 C 25 8.363281 21.636719 5 17.5 5 Z M 17.5 5 "/>
  </g>
</svg>
