<?xml version="1.0" encoding="UTF-8"?>
<svg xmlns="http://www.w3.org/2000/svg" width="25px"
  height="25px" viewBox="0 0 25 25" version="1.1">
  <g id="surface1">
    <path
      style=" stroke:none;fill-rule:nonzero;fill:rgb(88.235295%,88.235295%,97.647059%);fill-opacity:1;"
      d="M 7.5 5.414062 L 17.5 5.414062 C 21.410156 5.414062 24.585938 8.585938 24.585938 12.5 C 24.585938 16.414062 21.410156 19.585938 17.5 19.585938 L 7.5 19.585938 C 3.589844 19.585938 0.414062 16.414062 0.414062 12.5 C 0.414062 8.585938 3.589844 5.414062 7.5 5.414062 Z M 7.5 5.414062 "/>
    <path
      style=" stroke:none;fill-rule:nonzero;fill:rgb(18.82353%,75.686276%,56.862748%);fill-opacity:1;"
      d="M 12.914062 12.5 C 12.914062 9.507812 10.492188 7.085938 7.5 7.085938 C 4.511719 7.085938 2.082031 9.507812 2.082031 12.5 C 2.082031 15.492188 4.511719 17.914062 7.5 17.914062 C 10.492188 17.914062 12.914062 15.492188 12.914062 12.5 Z M 12.914062 12.5 "/>
    <path style=" stroke:none;fill-rule:nonzero;fill:rgb(100%,100%,100%);fill-opacity:1;"
      d="M 6.664062 15.417969 C 6.445312 15.417969 6.230469 15.332031 6.078125 15.171875 L 4.828125 13.921875 C 4.503906 13.597656 4.503906 13.066406 4.828125 12.742188 C 5.152344 12.421875 5.683594 12.421875 6.007812 12.742188 L 6.554688 13.292969 L 8.898438 9.9375 C 9.167969 9.5625 9.6875 9.472656 10.058594 9.734375 C 10.4375 9.996094 10.527344 10.515625 10.265625 10.894531 L 7.347656 15.0625 C 7.207031 15.265625 6.984375 15.394531 6.738281 15.410156 C 6.714844 15.417969 6.691406 15.417969 6.664062 15.417969 Z M 6.664062 15.417969 "/>
    <path
      style=" stroke:none;fill-rule:nonzero;fill:rgb(8.627451%,8.627451%,8.627451%);fill-opacity:1;"
      d="M 7.5 20 L 17.5 20 C 21.636719 20 25 16.636719 25 12.5 C 25 8.363281 21.636719 5 17.5 5 L 9.167969 5 C 8.9375 5 8.753906 5.1875 8.753906 5.414062 C 8.753906 5.644531 8.9375 5.835938 9.167969 5.835938 L 17.5 5.835938 C 21.171875 5.835938 24.164062 8.824219 24.164062 12.5 C 24.164062 16.175781 21.171875 19.164062 17.5 19.164062 L 7.5 19.164062 C 3.828125 19.164062 0.835938 16.175781 0.835938 12.5 C 0.835938 8.824219 3.828125 5.835938 7.5 5.835938 C 7.734375 5.835938 7.917969 5.644531 7.917969 5.414062 C 7.917969 5.1875 7.734375 5 7.5 5 C 3.363281 5 0 8.363281 0 12.5 C 0 16.636719 3.363281 20 7.5 20 Z M 7.5 20 "/>
    <path
      style=" stroke:none;fill-rule:nonzero;fill:rgb(8.627451%,8.627451%,8.627451%);fill-opacity:1;"
      d="M 1.667969 12.5 C 1.667969 15.714844 4.285156 18.335938 7.5 18.335938 C 10.71875 18.335938 13.335938 15.714844 13.335938 12.5 C 13.335938 9.285156 10.71875 6.664062 7.5 6.664062 C 4.285156 6.664062 1.667969 9.285156 1.667969 12.5 Z M 12.5 12.5 C 12.5 15.257812 10.261719 17.5 7.5 17.5 C 4.742188 17.5 2.503906 15.257812 2.503906 12.5 C 2.503906 9.742188 4.742188 7.5 7.5 7.5 C 10.261719 7.5 12.5 9.742188 12.5 12.5 Z M 12.5 12.5 "/>
    <path
      style=" stroke:none;fill-rule:nonzero;fill:rgb(8.627451%,8.627451%,8.627451%);fill-opacity:1;"
      d="M 6.300781 12.453125 C 5.8125 11.960938 5.023438 11.960938 4.535156 12.453125 C 4.046875 12.9375 4.046875 13.726562 4.535156 14.214844 L 5.78125 15.464844 C 6.324219 16.007812 7.25 15.925781 7.691406 15.300781 L 10.609375 11.132812 C 11.003906 10.570312 10.863281 9.789062 10.304688 9.394531 C 9.734375 8.996094 8.953125 9.136719 8.558594 9.699219 L 6.492188 12.648438 Z M 6.898438 13.53125 L 9.242188 10.179688 C 9.375 9.992188 9.636719 9.941406 9.820312 10.078125 C 10.011719 10.207031 10.058594 10.46875 9.925781 10.65625 L 7.007812 14.824219 C 6.867188 15.027344 6.554688 15.0625 6.371094 14.878906 L 5.121094 13.628906 C 4.960938 13.464844 4.960938 13.203125 5.121094 13.039062 C 5.285156 12.878906 5.546875 12.878906 5.710938 13.039062 L 6.261719 13.585938 C 6.347656 13.671875 6.46875 13.71875 6.59375 13.707031 C 6.714844 13.695312 6.824219 13.628906 6.898438 13.53125 Z M 6.898438 13.53125 "/>
  </g>
</svg>
